M48
; DRILL file KiCad 10.0.3 date 2026-06-29T14:19:16
; FORMAT={-:-/ absolute / metric / decimal}
; #@! TF.CreationDate,2026-06-29T14:19:16-04:00
; #@! TF.GenerationSoftware,Kicad,Pcbnew,10.0.3
; #@! TF.FileFunction,Plated,1,2,PTH
FMAT,2
METRIC
; #@! TA.AperFunction,Plated,PTH,ViaDrill
T1C0.300
; #@! TA.AperFunction,Plated,PTH,ComponentDrill
T2C1.000
%
G90
G05
T1
X161.55Y-61.375
X161.875Y-91.05
X161.875Y-95.35
X161.875Y-97.75
X161.9Y-89.675
X169.675Y-77.825
X172.7Y-89.9
T2
X157.46Y-50.01
X157.46Y-52.55
X157.46Y-55.09
X157.46Y-57.63
X157.46Y-60.17
X157.46Y-62.71
X157.46Y-65.25
X157.46Y-67.79
X157.46Y-70.33
X157.46Y-72.87
X157.46Y-75.41
X157.46Y-77.95
X157.46Y-80.49
X157.46Y-83.03
X157.46Y-85.57
X157.46Y-88.11
X157.46Y-90.65
X157.46Y-93.19
X157.46Y-95.73
X157.46Y-98.27
X160.0Y-50.01
X160.0Y-52.55
X160.0Y-55.09
X160.0Y-57.63
X160.0Y-60.17
X160.0Y-62.71
X160.0Y-65.25
X160.0Y-67.79
X160.0Y-70.33
X160.0Y-72.87
X160.0Y-75.41
X160.0Y-77.95
X160.0Y-80.49
X160.0Y-83.03
X160.0Y-85.57
X160.0Y-88.11
X160.0Y-90.65
X160.0Y-93.19
X160.0Y-95.73
X160.0Y-98.27
X168.355Y-55.255
X168.355Y-57.795
X168.355Y-60.335
X168.355Y-62.875
X168.355Y-65.415
X168.355Y-67.955
X172.945Y-55.255
X172.945Y-57.795
X172.945Y-60.335
X172.945Y-62.875
X172.945Y-65.415
X172.945Y-67.955
X175.15Y-87.81
X175.15Y-90.35
X175.15Y-92.89
X177.535Y-55.255
X177.535Y-57.795
X177.535Y-60.335
X177.535Y-62.875
X177.535Y-65.415
X177.535Y-67.955
X179.74Y-87.81
X179.74Y-90.35
X179.74Y-92.89
X182.125Y-55.255
X182.125Y-57.795
X182.125Y-60.335
X182.125Y-62.875
X182.125Y-65.415
X182.125Y-67.955
X184.33Y-87.81
X184.33Y-90.35
X184.33Y-92.89
X188.92Y-87.81
X188.92Y-90.35
X191.175Y-50.345
X191.175Y-52.885
X191.175Y-55.425
X191.175Y-57.965
X191.175Y-60.505
M30
