%TF.GenerationSoftware,KiCad,Pcbnew,10.0.3*%
%TF.CreationDate,2026-06-29T14:19:18-04:00*%
%TF.ProjectId,PathSense,50617468-5365-46e7-9365-2e6b69636164,rev?*%
%TF.SameCoordinates,Original*%
%TF.FileFunction,Legend,Bot*%
%TF.FilePolarity,Positive*%
%FSLAX46Y46*%
G04 Gerber Fmt 4.6, Leading zero omitted, Abs format (unit mm)*
G04 Created by KiCad (PCBNEW 10.0.3) date 2026-06-29 14:19:18*
%MOMM*%
%LPD*%
G01*
G04 APERTURE LIST*
%ADD10C,0.150000*%
%ADD11C,0.120000*%
G04 APERTURE END LIST*
D10*
X189729523Y-84884819D02*
X189729523Y-85599104D01*
X189729523Y-85599104D02*
X189777142Y-85741961D01*
X189777142Y-85741961D02*
X189872380Y-85837200D01*
X189872380Y-85837200D02*
X190015237Y-85884819D01*
X190015237Y-85884819D02*
X190110475Y-85884819D01*
X188729523Y-85884819D02*
X189300951Y-85884819D01*
X189015237Y-85884819D02*
X189015237Y-84884819D01*
X189015237Y-84884819D02*
X189110475Y-85027676D01*
X189110475Y-85027676D02*
X189205713Y-85122914D01*
X189205713Y-85122914D02*
X189300951Y-85170533D01*
X188110475Y-84884819D02*
X188015237Y-84884819D01*
X188015237Y-84884819D02*
X187919999Y-84932438D01*
X187919999Y-84932438D02*
X187872380Y-84980057D01*
X187872380Y-84980057D02*
X187824761Y-85075295D01*
X187824761Y-85075295D02*
X187777142Y-85265771D01*
X187777142Y-85265771D02*
X187777142Y-85503866D01*
X187777142Y-85503866D02*
X187824761Y-85694342D01*
X187824761Y-85694342D02*
X187872380Y-85789580D01*
X187872380Y-85789580D02*
X187919999Y-85837200D01*
X187919999Y-85837200D02*
X188015237Y-85884819D01*
X188015237Y-85884819D02*
X188110475Y-85884819D01*
X188110475Y-85884819D02*
X188205713Y-85837200D01*
X188205713Y-85837200D02*
X188253332Y-85789580D01*
X188253332Y-85789580D02*
X188300951Y-85694342D01*
X188300951Y-85694342D02*
X188348570Y-85503866D01*
X188348570Y-85503866D02*
X188348570Y-85265771D01*
X188348570Y-85265771D02*
X188300951Y-85075295D01*
X188300951Y-85075295D02*
X188253332Y-84980057D01*
X188253332Y-84980057D02*
X188205713Y-84932438D01*
X188205713Y-84932438D02*
X188110475Y-84884819D01*
X184663333Y-84884819D02*
X184663333Y-85599104D01*
X184663333Y-85599104D02*
X184710952Y-85741961D01*
X184710952Y-85741961D02*
X184806190Y-85837200D01*
X184806190Y-85837200D02*
X184949047Y-85884819D01*
X184949047Y-85884819D02*
X185044285Y-85884819D01*
X184139523Y-85884819D02*
X183949047Y-85884819D01*
X183949047Y-85884819D02*
X183853809Y-85837200D01*
X183853809Y-85837200D02*
X183806190Y-85789580D01*
X183806190Y-85789580D02*
X183710952Y-85646723D01*
X183710952Y-85646723D02*
X183663333Y-85456247D01*
X183663333Y-85456247D02*
X183663333Y-85075295D01*
X183663333Y-85075295D02*
X183710952Y-84980057D01*
X183710952Y-84980057D02*
X183758571Y-84932438D01*
X183758571Y-84932438D02*
X183853809Y-84884819D01*
X183853809Y-84884819D02*
X184044285Y-84884819D01*
X184044285Y-84884819D02*
X184139523Y-84932438D01*
X184139523Y-84932438D02*
X184187142Y-84980057D01*
X184187142Y-84980057D02*
X184234761Y-85075295D01*
X184234761Y-85075295D02*
X184234761Y-85313390D01*
X184234761Y-85313390D02*
X184187142Y-85408628D01*
X184187142Y-85408628D02*
X184139523Y-85456247D01*
X184139523Y-85456247D02*
X184044285Y-85503866D01*
X184044285Y-85503866D02*
X183853809Y-85503866D01*
X183853809Y-85503866D02*
X183758571Y-85456247D01*
X183758571Y-85456247D02*
X183710952Y-85408628D01*
X183710952Y-85408628D02*
X183663333Y-85313390D01*
X180073333Y-84884819D02*
X180073333Y-85599104D01*
X180073333Y-85599104D02*
X180120952Y-85741961D01*
X180120952Y-85741961D02*
X180216190Y-85837200D01*
X180216190Y-85837200D02*
X180359047Y-85884819D01*
X180359047Y-85884819D02*
X180454285Y-85884819D01*
X179454285Y-85313390D02*
X179549523Y-85265771D01*
X179549523Y-85265771D02*
X179597142Y-85218152D01*
X179597142Y-85218152D02*
X179644761Y-85122914D01*
X179644761Y-85122914D02*
X179644761Y-85075295D01*
X179644761Y-85075295D02*
X179597142Y-84980057D01*
X179597142Y-84980057D02*
X179549523Y-84932438D01*
X179549523Y-84932438D02*
X179454285Y-84884819D01*
X179454285Y-84884819D02*
X179263809Y-84884819D01*
X179263809Y-84884819D02*
X179168571Y-84932438D01*
X179168571Y-84932438D02*
X179120952Y-84980057D01*
X179120952Y-84980057D02*
X179073333Y-85075295D01*
X179073333Y-85075295D02*
X179073333Y-85122914D01*
X179073333Y-85122914D02*
X179120952Y-85218152D01*
X179120952Y-85218152D02*
X179168571Y-85265771D01*
X179168571Y-85265771D02*
X179263809Y-85313390D01*
X179263809Y-85313390D02*
X179454285Y-85313390D01*
X179454285Y-85313390D02*
X179549523Y-85361009D01*
X179549523Y-85361009D02*
X179597142Y-85408628D01*
X179597142Y-85408628D02*
X179644761Y-85503866D01*
X179644761Y-85503866D02*
X179644761Y-85694342D01*
X179644761Y-85694342D02*
X179597142Y-85789580D01*
X179597142Y-85789580D02*
X179549523Y-85837200D01*
X179549523Y-85837200D02*
X179454285Y-85884819D01*
X179454285Y-85884819D02*
X179263809Y-85884819D01*
X179263809Y-85884819D02*
X179168571Y-85837200D01*
X179168571Y-85837200D02*
X179120952Y-85789580D01*
X179120952Y-85789580D02*
X179073333Y-85694342D01*
X179073333Y-85694342D02*
X179073333Y-85503866D01*
X179073333Y-85503866D02*
X179120952Y-85408628D01*
X179120952Y-85408628D02*
X179168571Y-85361009D01*
X179168571Y-85361009D02*
X179263809Y-85313390D01*
X175483333Y-84884819D02*
X175483333Y-85599104D01*
X175483333Y-85599104D02*
X175530952Y-85741961D01*
X175530952Y-85741961D02*
X175626190Y-85837200D01*
X175626190Y-85837200D02*
X175769047Y-85884819D01*
X175769047Y-85884819D02*
X175864285Y-85884819D01*
X175102380Y-84884819D02*
X174435714Y-84884819D01*
X174435714Y-84884819D02*
X174864285Y-85884819D01*
X191508333Y-47419819D02*
X191508333Y-48134104D01*
X191508333Y-48134104D02*
X191555952Y-48276961D01*
X191555952Y-48276961D02*
X191651190Y-48372200D01*
X191651190Y-48372200D02*
X191794047Y-48419819D01*
X191794047Y-48419819D02*
X191889285Y-48419819D01*
X190603571Y-47419819D02*
X190794047Y-47419819D01*
X190794047Y-47419819D02*
X190889285Y-47467438D01*
X190889285Y-47467438D02*
X190936904Y-47515057D01*
X190936904Y-47515057D02*
X191032142Y-47657914D01*
X191032142Y-47657914D02*
X191079761Y-47848390D01*
X191079761Y-47848390D02*
X191079761Y-48229342D01*
X191079761Y-48229342D02*
X191032142Y-48324580D01*
X191032142Y-48324580D02*
X190984523Y-48372200D01*
X190984523Y-48372200D02*
X190889285Y-48419819D01*
X190889285Y-48419819D02*
X190698809Y-48419819D01*
X190698809Y-48419819D02*
X190603571Y-48372200D01*
X190603571Y-48372200D02*
X190555952Y-48324580D01*
X190555952Y-48324580D02*
X190508333Y-48229342D01*
X190508333Y-48229342D02*
X190508333Y-47991247D01*
X190508333Y-47991247D02*
X190555952Y-47896009D01*
X190555952Y-47896009D02*
X190603571Y-47848390D01*
X190603571Y-47848390D02*
X190698809Y-47800771D01*
X190698809Y-47800771D02*
X190889285Y-47800771D01*
X190889285Y-47800771D02*
X190984523Y-47848390D01*
X190984523Y-47848390D02*
X191032142Y-47896009D01*
X191032142Y-47896009D02*
X191079761Y-47991247D01*
X168688333Y-69789819D02*
X168688333Y-70504104D01*
X168688333Y-70504104D02*
X168735952Y-70646961D01*
X168735952Y-70646961D02*
X168831190Y-70742200D01*
X168831190Y-70742200D02*
X168974047Y-70789819D01*
X168974047Y-70789819D02*
X169069285Y-70789819D01*
X167735952Y-69789819D02*
X168212142Y-69789819D01*
X168212142Y-69789819D02*
X168259761Y-70266009D01*
X168259761Y-70266009D02*
X168212142Y-70218390D01*
X168212142Y-70218390D02*
X168116904Y-70170771D01*
X168116904Y-70170771D02*
X167878809Y-70170771D01*
X167878809Y-70170771D02*
X167783571Y-70218390D01*
X167783571Y-70218390D02*
X167735952Y-70266009D01*
X167735952Y-70266009D02*
X167688333Y-70361247D01*
X167688333Y-70361247D02*
X167688333Y-70599342D01*
X167688333Y-70599342D02*
X167735952Y-70694580D01*
X167735952Y-70694580D02*
X167783571Y-70742200D01*
X167783571Y-70742200D02*
X167878809Y-70789819D01*
X167878809Y-70789819D02*
X168116904Y-70789819D01*
X168116904Y-70789819D02*
X168212142Y-70742200D01*
X168212142Y-70742200D02*
X168259761Y-70694580D01*
X173278333Y-69789819D02*
X173278333Y-70504104D01*
X173278333Y-70504104D02*
X173325952Y-70646961D01*
X173325952Y-70646961D02*
X173421190Y-70742200D01*
X173421190Y-70742200D02*
X173564047Y-70789819D01*
X173564047Y-70789819D02*
X173659285Y-70789819D01*
X172373571Y-70123152D02*
X172373571Y-70789819D01*
X172611666Y-69742200D02*
X172849761Y-70456485D01*
X172849761Y-70456485D02*
X172230714Y-70456485D01*
X177868333Y-69789819D02*
X177868333Y-70504104D01*
X177868333Y-70504104D02*
X177915952Y-70646961D01*
X177915952Y-70646961D02*
X178011190Y-70742200D01*
X178011190Y-70742200D02*
X178154047Y-70789819D01*
X178154047Y-70789819D02*
X178249285Y-70789819D01*
X177487380Y-69789819D02*
X176868333Y-69789819D01*
X176868333Y-69789819D02*
X177201666Y-70170771D01*
X177201666Y-70170771D02*
X177058809Y-70170771D01*
X177058809Y-70170771D02*
X176963571Y-70218390D01*
X176963571Y-70218390D02*
X176915952Y-70266009D01*
X176915952Y-70266009D02*
X176868333Y-70361247D01*
X176868333Y-70361247D02*
X176868333Y-70599342D01*
X176868333Y-70599342D02*
X176915952Y-70694580D01*
X176915952Y-70694580D02*
X176963571Y-70742200D01*
X176963571Y-70742200D02*
X177058809Y-70789819D01*
X177058809Y-70789819D02*
X177344523Y-70789819D01*
X177344523Y-70789819D02*
X177439761Y-70742200D01*
X177439761Y-70742200D02*
X177487380Y-70694580D01*
X182458333Y-69789819D02*
X182458333Y-70504104D01*
X182458333Y-70504104D02*
X182505952Y-70646961D01*
X182505952Y-70646961D02*
X182601190Y-70742200D01*
X182601190Y-70742200D02*
X182744047Y-70789819D01*
X182744047Y-70789819D02*
X182839285Y-70789819D01*
X182029761Y-69885057D02*
X181982142Y-69837438D01*
X181982142Y-69837438D02*
X181886904Y-69789819D01*
X181886904Y-69789819D02*
X181648809Y-69789819D01*
X181648809Y-69789819D02*
X181553571Y-69837438D01*
X181553571Y-69837438D02*
X181505952Y-69885057D01*
X181505952Y-69885057D02*
X181458333Y-69980295D01*
X181458333Y-69980295D02*
X181458333Y-70075533D01*
X181458333Y-70075533D02*
X181505952Y-70218390D01*
X181505952Y-70218390D02*
X182077380Y-70789819D01*
X182077380Y-70789819D02*
X181458333Y-70789819D01*
%TO.C,J10*%
D11*
X190300000Y-86430000D02*
X188920000Y-86430000D01*
X190300000Y-87810000D02*
X190300000Y-86430000D01*
X190300000Y-89080000D02*
X190300000Y-91730000D01*
X190300000Y-89080000D02*
X187540000Y-89080000D01*
X190300000Y-91730000D02*
X187540000Y-91730000D01*
X187540000Y-89080000D02*
X187540000Y-91730000D01*
%TO.C,J9*%
X185710000Y-86430000D02*
X184330000Y-86430000D01*
X185710000Y-87810000D02*
X185710000Y-86430000D01*
X185710000Y-89080000D02*
X185710000Y-94270000D01*
X185710000Y-89080000D02*
X182950000Y-89080000D01*
X185710000Y-94270000D02*
X182950000Y-94270000D01*
X182950000Y-89080000D02*
X182950000Y-94270000D01*
%TO.C,J8*%
X181120000Y-86430000D02*
X179740000Y-86430000D01*
X181120000Y-87810000D02*
X181120000Y-86430000D01*
X181120000Y-89080000D02*
X181120000Y-94270000D01*
X181120000Y-89080000D02*
X178360000Y-89080000D01*
X181120000Y-94270000D02*
X178360000Y-94270000D01*
X178360000Y-89080000D02*
X178360000Y-94270000D01*
%TO.C,J7*%
X176530000Y-86430000D02*
X175150000Y-86430000D01*
X176530000Y-87810000D02*
X176530000Y-86430000D01*
X176530000Y-89080000D02*
X176530000Y-94270000D01*
X176530000Y-89080000D02*
X173770000Y-89080000D01*
X176530000Y-94270000D02*
X173770000Y-94270000D01*
X173770000Y-89080000D02*
X173770000Y-94270000D01*
%TO.C,J6*%
X192555000Y-48965000D02*
X191175000Y-48965000D01*
X192555000Y-50345000D02*
X192555000Y-48965000D01*
X192555000Y-51615000D02*
X192555000Y-61885000D01*
X192555000Y-51615000D02*
X189795000Y-51615000D01*
X192555000Y-61885000D02*
X189795000Y-61885000D01*
X189795000Y-51615000D02*
X189795000Y-61885000D01*
%TO.C,J5*%
X166975000Y-69335000D02*
X168355000Y-69335000D01*
X166975000Y-67955000D02*
X166975000Y-69335000D01*
X166975000Y-66685000D02*
X166975000Y-53875000D01*
X166975000Y-66685000D02*
X169735000Y-66685000D01*
X166975000Y-53875000D02*
X169735000Y-53875000D01*
X169735000Y-66685000D02*
X169735000Y-53875000D01*
%TO.C,J4*%
X171565000Y-69335000D02*
X172945000Y-69335000D01*
X171565000Y-67955000D02*
X171565000Y-69335000D01*
X171565000Y-66685000D02*
X171565000Y-53875000D01*
X171565000Y-66685000D02*
X174325000Y-66685000D01*
X171565000Y-53875000D02*
X174325000Y-53875000D01*
X174325000Y-66685000D02*
X174325000Y-53875000D01*
%TO.C,J3*%
X176155000Y-69335000D02*
X177535000Y-69335000D01*
X176155000Y-67955000D02*
X176155000Y-69335000D01*
X176155000Y-66685000D02*
X176155000Y-53875000D01*
X176155000Y-66685000D02*
X178915000Y-66685000D01*
X176155000Y-53875000D02*
X178915000Y-53875000D01*
X178915000Y-66685000D02*
X178915000Y-53875000D01*
%TO.C,J2*%
X180745000Y-69335000D02*
X182125000Y-69335000D01*
X180745000Y-67955000D02*
X180745000Y-69335000D01*
X180745000Y-66685000D02*
X180745000Y-53875000D01*
X180745000Y-66685000D02*
X183505000Y-66685000D01*
X180745000Y-53875000D02*
X183505000Y-53875000D01*
X183505000Y-66685000D02*
X183505000Y-53875000D01*
%TD*%
M02*
